# xmcd
#
# Track frame offsets: 
#        150
#        15535
#        31100
#        37315
#        57680
#        59965
#        75585
#        99325
#        116245
#
# Disc length: 1676 seconds
#
# Revision: 0
# Processed by: cddbd v1.5.2PL0 Copyright (c) Steve Scherf et al.
# Submitted via: ExactAudioCopy v0.95b4
#
DISCID=7c068a09
DTITLE=The Beatles  - The Anthology DVD Songtrack - Volume 2 - 1967-19
DTITLE=70
DYEAR=1900
DGENRE=
TTITLE0=Strawberry Fields Forever (Paul Intro, 1995)
TTITLE1=Penny Lane
TTITLE2=A Day In The Life - Take 1 Excerpt
TTITLE3=A Day In The Life
TTITLE4=All You Need Is Love Rehearsal
TTITLE5=All You Need Is Love
TTITLE6=I Am The Walrus - John Intro
TTITLE7=Hello Goodbye - Ed Sullivan Intro
TTITLE8=Accross The Universe Take 2 Alternative Mix
EXTD=
EXTT0=
EXTT1=
EXTT2=
EXTT3=
EXTT4=
EXTT5=
EXTT6=
EXTT7=
EXTT8=
PLAYORDER=
